<svg width="31" height="30" viewBox="0 0 31 30" fill="none" xmlns="http://www.w3.org/2000/svg">
<g id="basil:facebook-solid">
<path id="Vector" d="M18.2415 4.02596C16.7405 4.02596 15.3011 4.62221 14.2397 5.68354C13.1784 6.74487 12.5822 8.18435 12.5822 9.6853V12.8362H9.55364C9.40191 12.8362 9.27832 12.9585 9.27832 13.1115V17.2719C9.27832 17.4236 9.40068 17.5472 9.55364 17.5472H12.5822V26.0821C12.5822 26.2338 12.7045 26.3574 12.8575 26.3574H17.0179C17.1696 26.3574 17.2932 26.2351 17.2932 26.0821V17.5472H20.3486C20.4746 17.5472 20.5848 17.4615 20.6154 17.3392L21.6555 13.1788C21.6657 13.1382 21.6665 13.0958 21.6579 13.0548C21.6493 13.0139 21.6315 12.9754 21.6057 12.9424C21.58 12.9093 21.5471 12.8826 21.5095 12.8642C21.4719 12.8458 21.4306 12.8362 21.3887 12.8362H17.2932V9.6853C17.2932 9.56076 17.3177 9.43745 17.3654 9.32239C17.413 9.20734 17.4829 9.10279 17.5709 9.01473C17.659 8.92667 17.7635 8.85682 17.8786 8.80916C17.9936 8.76151 18.117 8.73698 18.2415 8.73698H21.423C21.5747 8.73698 21.6983 8.61461 21.6983 8.46166V4.30127C21.6983 4.14954 21.5759 4.02596 21.423 4.02596H18.2415Z" fill="white"/>
</g>
</svg>
