<svg width="18" height="13" viewBox="0 0 18 13" fill="none" xmlns="http://www.w3.org/2000/svg">
<g id="Group">
<g id="Group_2">
<path id="Vector" d="M9.16169 3.64813C10.5173 3.64813 11.6232 4.80539 11.6232 6.23084C11.6232 7.65262 10.521 8.81356 9.16169 8.81356C7.80604 8.81356 6.70022 7.6563 6.70022 6.23084C6.70022 4.80907 7.80604 3.64813 9.16169 3.64813Z" fill="#1891AC"/>
<path id="Vector_2" d="M9.16165 10.3125C11.3439 10.3125 13.1221 8.48291 13.1221 6.23084C13.1221 3.97877 11.3439 2.1492 9.16165 2.1492C6.97938 2.1492 5.20124 3.97877 5.20124 6.23084C5.20124 8.48291 6.97938 10.3125 9.16165 10.3125ZM0.11297 5.83406C2.45688 2.07205 5.61639 0 9 0C12.3836 0 15.5431 2.07205 17.887 5.83406C18.0377 6.07654 18.0377 6.38514 17.887 6.62761C15.5431 10.3896 12.3836 12.4617 9 12.4617C5.61639 12.4617 2.46056 10.3896 0.11297 6.62761C-0.0376568 6.38514 -0.0376568 6.07654 0.11297 5.83406Z" fill="#1891AC"/>
</g>
</g>
</svg>
