<svg width="30" height="30" viewBox="0 0 30 30" fill="none" xmlns="http://www.w3.org/2000/svg">
<g id="mdi:twitter">
<path id="Vector" d="M27.5725 7.71566C26.6303 8.14393 25.6146 8.42537 24.5623 8.55997C25.6391 7.91144 26.4712 6.88358 26.8628 5.6477C25.8471 6.25952 24.7214 6.6878 23.5345 6.93253C22.5678 5.88019 21.2095 5.26837 19.6677 5.26837C16.7922 5.26837 14.4428 7.61776 14.4428 10.5178C14.4428 10.9338 14.4917 11.3376 14.5774 11.717C10.2212 11.4967 6.34228 9.40428 3.76039 6.23505C3.30765 7.00594 3.05068 7.91144 3.05068 8.86588C3.05068 10.6891 3.96841 12.3043 5.38784 13.222C4.51905 13.222 3.71145 12.9773 3.00174 12.6102V12.6469C3.00174 15.1921 4.81273 17.3212 7.21107 17.7985C6.44106 18.0092 5.63268 18.0385 4.84944 17.8841C5.18179 18.9273 5.83268 19.84 6.71062 20.4941C7.58855 21.1481 8.64939 21.5106 9.74401 21.5306C7.88851 22.9995 5.58851 23.7935 3.22199 23.7821C2.80595 23.7821 2.38992 23.7576 1.97388 23.7087C4.2988 25.2015 7.06423 26.0703 10.0254 26.0703C19.6677 26.0703 24.9661 18.0677 24.9661 11.1296C24.9661 10.8971 24.9661 10.6769 24.9539 10.4444C25.9817 9.71019 26.8628 8.78022 27.5725 7.71566Z" fill="white"/>
</g>
</svg>
