<svg xmlns="http://www.w3.org/2000/svg" width="15" height="15" viewBox="0 0 15 15" fill="none">
  <g clip-path="url(#clip0_610_29)">
    <path d="M7.51433 2.91934C4.45523 2.91934 1.84275 4.82211 0.784302 7.508C1.84275 10.1939 4.45523 12.0967 7.51433 12.0967C10.5734 12.0967 13.1859 10.1939 14.2444 7.508C13.1859 4.82211 10.5734 2.91934 7.51433 2.91934ZM7.51433 10.5671C5.82571 10.5671 4.45523 9.19663 4.45523 7.508C4.45523 5.81937 5.82571 4.44889 7.51433 4.44889C9.20296 4.44889 10.5734 5.81937 10.5734 7.508C10.5734 9.19663 9.20296 10.5671 7.51433 10.5671ZM7.51433 5.67254C6.49871 5.67254 5.67887 6.49238 5.67887 7.508C5.67887 8.52362 6.49871 9.34346 7.51433 9.34346C8.52996 9.34346 9.3498 8.52362 9.3498 7.508C9.3498 6.49238 8.52996 5.67254 7.51433 5.67254Z" fill="#8C8C8C"/>
  </g>
  <defs>
    <clipPath id="clip0_610_29">
      <rect width="14.6837" height="14.6837" fill="white" transform="translate(0.172485 0.166138)"/>
    </clipPath>
  </defs>
</svg>