<svg width="46" height="46" viewBox="0 0 46 46" fill="none" xmlns="http://www.w3.org/2000/svg">
<g id="photo-camera-svgrepo-com 1">
<path id="Vector" d="M5.73308 17.1992C5.73308 15.0884 7.44427 13.3772 9.55514 13.3772H12.4217C13.6247 13.3772 14.7575 12.8108 15.4793 11.8484L17.4859 9.17293C18.2077 8.21051 19.3406 7.6441 20.5435 7.6441H25.3211C26.5241 7.6441 27.657 8.21051 28.3788 9.17293L30.3853 11.8484C31.1071 12.8108 32.24 13.3772 33.443 13.3772H36.3095C38.4205 13.3772 40.1316 15.0884 40.1316 17.1992V34.3985C40.1316 36.5094 38.4205 38.2206 36.3095 38.2206H9.55514C7.44427 38.2206 5.73308 36.5094 5.73308 34.3985V17.1992Z" stroke="#8C8C8C" stroke-width="3.82206" stroke-linecap="round" stroke-linejoin="round"/>
<path id="Vector_2" d="M22.9323 32.4875C27.1541 32.4875 30.5765 29.0651 30.5765 24.8434C30.5765 20.6217 27.1541 17.1993 22.9323 17.1993C18.7106 17.1993 15.2882 20.6217 15.2882 24.8434C15.2882 29.0651 18.7106 32.4875 22.9323 32.4875Z" stroke="#8C8C8C" stroke-width="3.82206" stroke-linecap="round" stroke-linejoin="round"/>
</g>
</svg>
